<?xml version="1.0" encoding="UTF-8" standalone="no"?>
<!-- Created with Inkscape (http://www.inkscape.org/) -->

<svg
   xmlns:dc="http://purl.org/dc/elements/1.1/"
   xmlns:cc="http://creativecommons.org/ns#"
   xmlns:rdf="http://www.w3.org/1999/02/22-rdf-syntax-ns#"
   xmlns:svg="http://www.w3.org/2000/svg"
   xmlns="http://www.w3.org/2000/svg"
   xmlns:sodipodi="http://sodipodi.sourceforge.net/DTD/sodipodi-0.dtd"
   xmlns:inkscape="http://www.inkscape.org/namespaces/inkscape"
   width="512"
   height="512"
   viewBox="0 0 135.46666 135.46667"
   version="1.1"
   id="svg8"
   inkscape:version="0.92.2 2405546, 2018-03-11"
   sodipodi:docname="kpt_v1.svg">
  <defs
     id="defs2" />
  <sodipodi:namedview
     id="base"
     pagecolor="#ffffff"
     bordercolor="#666666"
     borderopacity="1.0"
     inkscape:pageopacity="0.0"
     inkscape:pageshadow="2"
     inkscape:zoom="0.04375"
     inkscape:cx="1201.9204"
     inkscape:cy="2603.9542"
     inkscape:document-units="px"
     inkscape:current-layer="g848"
     showgrid="false"
     units="px"
     inkscape:window-width="1920"
     inkscape:window-height="1006"
     inkscape:window-x="0"
     inkscape:window-y="0"
     inkscape:window-maximized="1" />
  <metadata
     id="metadata5">
    <rdf:RDF>
      <cc:Work
         rdf:about="">
        <dc:format>image/svg+xml</dc:format>
        <dc:type
           rdf:resource="http://purl.org/dc/dcmitype/StillImage" />
        <dc:title />
        <cc:license
           rdf:resource="http://creativecommons.org/licenses/by/4.0/" />
      </cc:Work>
      <cc:License
         rdf:about="http://creativecommons.org/licenses/by/4.0/">
        <cc:permits
           rdf:resource="http://creativecommons.org/ns#Reproduction" />
        <cc:permits
           rdf:resource="http://creativecommons.org/ns#Distribution" />
        <cc:requires
           rdf:resource="http://creativecommons.org/ns#Notice" />
        <cc:requires
           rdf:resource="http://creativecommons.org/ns#Attribution" />
        <cc:permits
           rdf:resource="http://creativecommons.org/ns#DerivativeWorks" />
      </cc:License>
    </rdf:RDF>
  </metadata>
  <g
     inkscape:label="Ebene 1"
     inkscape:groupmode="layer"
     id="layer1"
     transform="translate(0,-161.53331)">
    <g
       id="g848"
       transform="matrix(1.3598007,0,0,1.3598007,-21.999759,-73.821019)">
      <path
         style="opacity:1;fill:#000000;fill-opacity:1;stroke:none;stroke-width:1.42761981;stroke-opacity:1"
         d="M 188.60742 202.25 L 52.832031 335.29102 L 185.74219 335.29102 L 188.49219 335.29102 L 248.54492 335.29102 L 248.54492 326.05078 A 20.397009 20.396998 0 0 1 236.4043 307.41602 A 20.397009 20.396998 0 0 1 256.80078 287.01758 A 20.397009 20.396998 0 0 1 277.19922 307.41602 A 20.397009 20.396998 0 0 1 265.05859 326.03906 L 265.05859 335.29102 L 460.77148 335.29102 L 460.77148 238.64648 L 188.57617 238.64648 L 188.60742 202.25 z "
         transform="matrix(0.19457508,0,0,0.19457508,16.178664,173.08002)"
         id="rect935" />
      <path
         style="opacity:1;fill:#000000;fill-opacity:1;stroke:none;stroke-width:1.42761981;stroke-opacity:1"
         d="M 325.11133 351.60742 L 325.11133 351.60938 L 265.05859 351.60938 L 265.05859 380.25977 L 248.54492 380.25977 L 248.54492 351.60938 L 52.832031 351.60938 L 52.832031 448.25 L 325.02734 448.25 L 324.99609 484.64844 L 460.77148 351.60742 L 325.11133 351.60742 z "
         transform="matrix(0.19457508,0,0,0.19457508,16.178664,173.08002)"
         id="rect948" />
      <path
         inkscape:connector-curvature="0"
         id="path834"
         d="m 65.07923,178.76421 a 37.551367,37.551367 0 0 0 -17.86196,5.117 37.551367,37.551367 0 0 0 -18.596798,32.95303 l 5.555734,-0.006 a 32.017475,32.017475 0 0 1 15.855879,-28.0913 32.017475,32.017475 0 0 1 32.262113,-0.0315 32.017475,32.017475 0 0 1 15.911694,28.05979 l 5.510758,-0.006 A 37.551367,37.551367 0 0 0 85.055271,183.844 37.551367,37.551367 0 0 0 65.07923,178.76421 Z"
         style="opacity:1;fill:#000000;fill-opacity:1;stroke:none;stroke-width:0.26458332;stroke-opacity:1" />
      <path
         sodipodi:nodetypes="ccccc"
         inkscape:connector-curvature="0"
         id="rect839"
         d="m 28.620472,216.62782 h 5.555734 v 10.65888 l -5.555734,5.59472 z"
         style="opacity:1;fill:#000000;fill-opacity:1;stroke:none;stroke-width:0.33472073;stroke-opacity:1" />
    </g>
  </g>
</svg>
